<svg width="69" height="69" viewBox="0 0 69 69" fill="none" xmlns="http://www.w3.org/2000/svg">
<g clip-path="url(#clip0_2381_36267)">
<rect y="23.2502" width="61" height="45.75" fill="#FDB52A"/>
<path d="M7.17657 23.25C7.17657 20.1871 7.77985 17.1542 8.95197 14.3244C10.1241 11.4947 11.8421 8.92352 14.0079 6.75773C16.1737 4.59194 18.7448 2.87394 21.5746 1.70183C24.4043 0.52971 27.4372 -0.0735704 30.5001 -0.0735703C33.563 -0.0735701 36.5959 0.529711 39.4256 1.70183C42.2554 2.87395 44.8265 4.59194 46.9923 6.75773C49.1581 8.92352 50.8761 11.4947 52.0482 14.3244C53.2203 17.1542 53.8236 20.1871 53.8236 23.25L42.1619 23.25C42.1619 21.7185 41.8602 20.2021 41.2742 18.7872C40.6881 17.3723 39.8291 16.0867 38.7462 15.0038C37.6633 13.921 36.3777 13.062 34.9629 12.4759C33.548 11.8898 32.0315 11.5882 30.5001 11.5882C28.9687 11.5882 27.4522 11.8898 26.0373 12.4759C24.6225 13.062 23.3369 13.921 22.254 15.0038C21.1711 16.0867 20.3121 17.3723 19.726 18.7872C19.14 20.2021 18.8383 21.7185 18.8383 23.25H7.17657Z" fill="#2E4567"/>
</g>
<defs>
<clipPath id="clip0_2381_36267">
<rect width="69" height="69" fill="white"/>
</clipPath>
</defs>
</svg>
