<svg width="256" height="256" viewBox="0 0 256 256" fill="none" xmlns="http://www.w3.org/2000/svg">
<circle cx="66.6817" cy="66.6826" r="63.7949" fill="#FF7D85"/>
<path d="M253.114 7.84081C253.114 23.9455 249.941 39.8926 243.778 54.7714C237.615 69.6502 228.582 83.1695 217.194 94.5572C205.807 105.945 192.287 114.978 177.409 121.141C162.53 127.304 146.583 130.476 130.478 130.476L130.478 7.84081H253.114Z" fill="#FDB52A"/>
<path d="M7.84253 130.477C7.84253 146.582 11.0146 162.529 17.1776 177.407C23.3406 192.286 32.3739 205.805 43.7616 217.193C55.1494 228.581 68.6686 237.614 83.5475 243.777C98.4263 249.94 114.373 253.112 130.478 253.112L130.478 130.477H7.84253Z" fill="#47BDFF"/>
<path d="M253.114 253.112C253.114 237.008 249.941 221.061 243.778 206.182C237.615 191.303 228.582 177.784 217.194 166.396C205.807 155.008 192.287 145.975 177.409 139.812C162.53 133.649 146.583 130.477 130.478 130.477L130.478 253.112H253.114Z" fill="#7BE298"/>
</svg>
