<svg width="420" height="420" viewBox="0 0 420 420" fill="none" xmlns="http://www.w3.org/2000/svg">
<rect width="420" height="420" fill="#E4F5FF"/>
<path d="M66.3076 228.546C66.3076 209.716 70.0166 191.069 77.2227 173.672C84.4289 156.275 94.9911 140.467 108.306 127.152C121.622 113.837 137.429 103.275 154.826 96.0684C172.224 88.8623 190.87 85.1533 209.701 85.1533C228.531 85.1533 247.177 88.8623 264.575 96.0685C281.972 103.275 297.779 113.837 311.095 127.152C324.41 140.467 334.972 156.275 342.178 173.672C349.384 191.069 353.093 209.716 353.093 228.546L209.7 228.546L66.3076 228.546Z" fill="#FF7D85"/>
<circle cx="209.7" cy="228.55" r="94.4169" transform="rotate(90 209.7 228.55)" fill="#47BDFF"/>
</svg>
