<svg width="69" height="69" viewBox="0 0 69 69" fill="none" xmlns="http://www.w3.org/2000/svg">
<circle cx="34.5" cy="34.5" r="34.5" transform="rotate(-180 34.5 34.5)" fill="#47BDFF"/>
<path d="M34.5 0C28.5971 -2.58026e-07 22.7929 1.51459 17.6426 4.39889C12.4923 7.28319 8.16819 11.4407 5.08391 16.4738C1.99964 21.5069 0.258346 27.2472 0.0265983 33.1455C-0.20515 39.0439 1.0804 44.9031 3.76028 50.1627C6.44015 55.4222 10.4247 59.9062 15.3328 63.1857C20.2409 66.4652 25.9084 68.4305 31.7932 68.8936C37.6779 69.3568 43.5831 68.3023 48.9438 65.8309C54.3045 63.3596 58.9414 59.5542 62.4111 54.7786L34.5 34.5L34.5 0Z" fill="#FF7D85"/>
</svg>
