<svg width="32" height="32" viewBox="0 0 32 32" fill="none" xmlns="http://www.w3.org/2000/svg">
<circle cx="8.3352" cy="8.33533" r="7.97436" fill="#FF7D85"/>
<path d="M31.6392 0.980132C31.6392 2.99322 31.2427 4.9866 30.4723 6.84645C29.7019 8.70631 28.5728 10.3962 27.1493 11.8197C25.7258 13.2432 24.0359 14.3723 22.1761 15.1427C20.3162 15.9131 18.3228 16.3096 16.3098 16.3096L16.3098 0.980132H31.6392Z" fill="#FDB52A"/>
<path d="M0.980316 16.3096C0.980316 18.3227 1.37682 20.3161 2.1472 22.1759C2.91758 24.0358 4.04673 25.7257 5.4702 27.1492C6.89367 28.5726 8.58358 29.7018 10.4434 30.4722C12.3033 31.2425 14.2967 31.639 16.3098 31.639L16.3098 16.3096H0.980316Z" fill="#47BDFF"/>
<path d="M31.6392 31.639C31.6392 29.6259 31.2427 27.6326 30.4723 25.7727C29.7019 23.9129 28.5728 22.223 27.1493 20.7995C25.7258 19.376 24.0359 18.2469 22.1761 17.4765C20.3162 16.7061 18.3228 16.3096 16.3098 16.3096L16.3098 31.639H31.6392Z" fill="#7BE298"/>
</svg>
