<svg width="146" height="33" viewBox="0 0 146 33" fill="none" xmlns="http://www.w3.org/2000/svg">
<circle cx="8.40403" cy="8.40403" r="8.04014" fill="#FF7D85"/>
<path d="M31.9001 0.988217C31.9001 3.01791 31.5003 5.02773 30.7236 6.90292C29.9469 8.77812 28.8084 10.482 27.3732 11.9172C25.938 13.3524 24.2341 14.4909 22.3589 15.2676C20.4837 16.0443 18.4739 16.4441 16.4442 16.4441L16.4442 0.988217H31.9001Z" fill="#FDB52A"/>
<path d="M0.988338 16.4442C0.988338 18.4738 1.38812 20.4837 2.16485 22.3589C2.94158 24.2341 4.08005 25.9379 5.51526 27.3731C6.95047 28.8083 8.65431 29.9468 10.5295 30.7235C12.4047 31.5002 14.4145 31.9 16.4442 31.9L16.4442 16.4442H0.988338Z" fill="#47BDFF"/>
<path d="M31.9001 31.9C31.9001 29.8703 31.5003 27.8605 30.7236 25.9853C29.9469 24.1101 28.8084 22.4063 27.3732 20.9711C25.938 19.5359 24.2341 18.3974 22.3589 17.6207C20.4837 16.8439 18.4739 16.4442 16.4442 16.4442L16.4442 31.9H31.9001Z" fill="#7BE298"/>
<path d="M44.9851 24.9795H49.1886V8.09163H44.9851V24.9795ZM62.0464 7.79664V13.9667C61.0385 12.7131 59.5636 11.9756 57.8429 11.9756C54.4506 11.9756 52.0169 14.7288 52.0169 18.6127C52.0169 22.5213 54.4506 25.2745 57.8429 25.2745C59.5636 25.2745 61.0385 24.537 62.0464 23.2833V24.9795H66.2008V7.79664H62.0464ZM59.1211 21.8084C57.3021 21.8084 56.0238 20.481 56.0238 18.6127C56.0238 16.7691 57.3021 15.4417 59.1211 15.4417C60.8173 15.4417 62.0218 16.7691 62.0218 18.6127C62.0218 20.481 60.8173 21.8084 59.1211 21.8084ZM75.3393 22.1034C73.889 22.1034 72.8566 21.1201 72.537 19.6698H81.8044C81.8044 14.8517 79.3462 11.9756 75.3148 11.9756C71.48 11.9756 68.6039 14.7288 68.6039 18.5882C68.6039 22.4967 71.5783 25.2745 75.5114 25.2745C77.4288 25.2745 79.592 24.4633 80.7228 23.3079L78.4121 20.9726C77.5763 21.6609 76.4209 22.1034 75.3393 22.1034ZM75.3393 15.1467C76.6422 15.1467 77.5271 16.0316 77.8221 17.3345H72.5861C72.9795 16.007 73.9873 15.1467 75.3393 15.1467ZM89.6874 11.9756C87.7208 11.9756 85.9017 12.541 84.1318 13.4259L85.4593 16.1054C86.4425 15.6137 87.4996 15.2942 88.6303 15.2942C90.4986 15.2942 91.4081 16.2037 91.4081 17.4328V17.6049C90.4248 17.2116 89.3678 16.9903 88.4337 16.9903C85.4347 16.9903 83.0994 18.7357 83.0994 21.2184C83.0994 23.6275 85.1643 25.2745 87.8929 25.2745C89.1957 25.2745 90.5232 24.7828 91.4081 23.8733V24.9795H95.415V17.4328C95.415 14.0405 92.9568 11.9756 89.6874 11.9756ZM88.8762 22.5213C87.8437 22.5213 87.0571 21.9559 87.0571 21.0955C87.0571 20.2352 87.9175 19.596 89.0237 19.596C89.884 19.596 90.7198 19.7681 91.4081 20.0877V20.9726C91.236 21.9313 90.1299 22.5213 88.8762 22.5213ZM106.184 11.9756C104.586 11.9756 103.259 12.6393 102.472 13.6963V7.79664H98.3176V24.9795H102.472V17.654C102.472 16.4004 103.431 15.4417 104.709 15.4417C105.987 15.4417 106.872 16.4249 106.872 17.8261V24.9795H110.879V16.892C110.879 14.0159 108.937 11.9756 106.184 11.9756ZM121.987 12.2706V19.596C121.987 20.8497 121.028 21.8084 119.75 21.8084C118.471 21.8084 117.586 20.8251 117.586 19.4239V12.2706H113.58V20.3581C113.58 23.2342 115.522 25.2745 118.275 25.2745C119.873 25.2745 121.2 24.6108 121.987 23.5537V24.9795H126.141V12.2706H121.987ZM137.863 11.9756C136.02 11.9756 134.495 12.8114 133.488 14.188V7.79664H129.333V24.9795H133.488V23.0375C134.495 24.4387 136.02 25.2745 137.863 25.2745C141.28 25.2745 143.714 22.5213 143.714 18.6127C143.714 14.7288 141.28 11.9756 137.863 11.9756ZM136.61 21.8084C134.913 21.8084 133.709 20.481 133.709 18.6127C133.709 16.7691 134.913 15.4417 136.61 15.4417C138.429 15.4417 139.707 16.7691 139.707 18.6127C139.707 20.481 138.429 21.8084 136.61 21.8084Z" fill="#162C4E"/>
</svg>
