<svg width="175" height="38" viewBox="0 0 175 38" fill="none" xmlns="http://www.w3.org/2000/svg">
<circle cx="9.81729" cy="9.81802" r="9.39224" fill="#FF7D85"/>
<path d="M37.2648 1.15489C37.2648 3.52591 36.7978 5.87372 35.8904 8.06426C34.9831 10.2548 33.6532 12.2452 31.9766 13.9218C30.3 15.5983 28.3096 16.9282 26.1191 17.8356C23.9286 18.743 21.5807 19.21 19.2097 19.21L19.2097 1.15489H37.2648Z" fill="#FDB52A"/>
<path d="M1.15464 19.2106C1.15464 21.5816 1.62165 23.9294 2.529 26.1199C3.43636 28.3105 4.76628 30.3008 6.44285 31.9774C8.11942 33.654 10.1098 34.9839 12.3003 35.8913C14.4909 36.7986 16.8387 37.2656 19.2097 37.2656L19.2097 19.2106H1.15464Z" fill="#47BDFF"/>
<path d="M37.2648 37.2656C37.2648 34.8946 36.7978 32.5468 35.8904 30.3562C34.9831 28.1657 33.6532 26.1753 31.9766 24.4988C30.3 22.8222 28.3096 21.4923 26.1191 20.5849C23.9286 19.6776 21.5807 19.2106 19.2097 19.2106L19.2097 37.2656H37.2648Z" fill="#7BE298"/>
<path d="M53.987 28.7412H58.8974V9.01333H53.987V28.7412ZM73.9174 8.66874V15.8765C72.7401 14.4119 71.0171 13.5505 69.007 13.5505C65.0442 13.5505 62.2013 16.7666 62.2013 21.3038C62.2013 25.8696 65.0442 29.0858 69.007 29.0858C71.0171 29.0858 72.7401 28.2243 73.9174 26.7598V28.7412H78.7704V8.66874H73.9174ZM70.5002 25.0368C68.3753 25.0368 66.882 23.4862 66.882 21.3038C66.882 19.1501 68.3753 17.5994 70.5002 17.5994C72.4816 17.5994 73.8887 19.1501 73.8887 21.3038C73.8887 23.4862 72.4816 25.0368 70.5002 25.0368ZM89.4458 25.3814C87.7516 25.3814 86.5455 24.2328 86.1722 22.5386H96.9981C96.9981 16.9102 94.1265 13.5505 89.4171 13.5505C84.9374 13.5505 81.5777 16.7666 81.5777 21.2751C81.5777 25.8409 85.0523 29.0858 89.6468 29.0858C91.8867 29.0858 94.4137 28.1382 95.7346 26.7885L93.0353 24.0605C92.059 24.8646 90.7093 25.3814 89.4458 25.3814ZM89.4458 17.2548C90.9678 17.2548 92.0016 18.2886 92.3461 19.8105H86.2296C86.6891 18.2599 87.8665 17.2548 89.4458 17.2548ZM106.207 13.5505C103.909 13.5505 101.785 14.2109 99.717 15.2447L101.268 18.3747C102.416 17.8004 103.651 17.4271 104.972 17.4271C107.154 17.4271 108.217 18.4896 108.217 19.9254V20.1264C107.068 19.667 105.833 19.4085 104.742 19.4085C101.239 19.4085 98.5109 21.4474 98.5109 24.3477C98.5109 27.1618 100.923 29.0858 104.11 29.0858C105.632 29.0858 107.183 28.5115 108.217 27.449V28.7412H112.898V19.9254C112.898 15.9626 110.026 13.5505 106.207 13.5505ZM105.259 25.8696C104.053 25.8696 103.134 25.2091 103.134 24.2041C103.134 23.199 104.139 22.4524 105.431 22.4524C106.436 22.4524 107.413 22.6534 108.217 23.0267V24.0605C108.016 25.1804 106.724 25.8696 105.259 25.8696ZM129.727 9.01333V16.4795H121.629V9.01333H116.719V28.7412H121.629V20.873H129.727V28.7412H134.638V9.01333H129.727ZM148.341 13.895V22.4524C148.341 23.9169 147.221 25.0368 145.727 25.0368C144.234 25.0368 143.2 23.8882 143.2 22.2514V13.895H138.52V23.3426C138.52 26.7024 140.788 29.0858 144.004 29.0858C145.871 29.0858 147.422 28.3105 148.341 27.0757V28.7412H153.194V13.895H148.341ZM166.887 13.5505C164.733 13.5505 162.953 14.5268 161.776 16.1349V8.66874H156.923V28.7412H161.776V26.4726C162.953 28.1095 164.733 29.0858 166.887 29.0858C170.879 29.0858 173.721 25.8696 173.721 21.3038C173.721 16.7666 170.879 13.5505 166.887 13.5505ZM165.422 25.0368C163.441 25.0368 162.034 23.4862 162.034 21.3038C162.034 19.1501 163.441 17.5994 165.422 17.5994C167.547 17.5994 169.041 19.1501 169.041 21.3038C169.041 23.4862 167.547 25.0368 165.422 25.0368Z" fill="white"/>
</svg>
