<svg width="69" height="87" viewBox="0 0 69 87" fill="none" xmlns="http://www.w3.org/2000/svg">
<rect x="68.3" y="9" width="34.297" height="68.299" transform="rotate(90 68.3 9)" fill="#47BDFF"/>
<path d="M4.57764e-05 43.15C4.53805e-05 52.2071 3.59798 60.8933 10.0023 67.2977C16.4067 73.7021 25.0929 77.3 34.15 77.3C43.2072 77.3 51.8934 73.7021 58.2977 67.2977C64.7021 60.8933 68.3 52.2072 68.3 43.15L34.15 43.15L4.57764e-05 43.15Z" fill="#47BDFF"/>
<rect x="57.1025" y="20.1973" width="23.0513" height="45.9043" transform="rotate(90 57.1025 20.1973)" fill="#FDB52A"/>
<path d="M11.1976 43.1498C11.1976 49.2371 13.6158 55.0752 17.9202 59.3796C22.2246 63.684 28.0627 66.1022 34.15 66.1022C40.2374 66.1022 46.0755 63.684 50.3799 59.3796C54.6843 55.0752 57.1025 49.2371 57.1025 43.1498L34.15 43.1498L11.1976 43.1498Z" fill="#FDB52A"/>
</svg>
